# xmcd
#
# Track frame offsets: 
#        150
#        9012
#        21752
#        35445
#        47406
#        60766
#        73978
#        91027
#        102965
#        118058
#        126328
#        139212
#
# Disc length: 2024 seconds
#
# Revision: 0
# Processed by: cddbd v1.4PL0 Copyright (c) Steve Scherf et al.
# Submitted via: ExactAudioCopy v0.90b3
#
DISCID=9407e60c
DTITLE=Jason Roberts - Texas Fiddle Man
DYEAR=2002
DGENRE=Country
TTITLE0=Fiddlin'around
TTITLE1=You done me wrong
TTITLE2=Beaumont rag
TTITLE3=I can't see Texas from here
TTITLE4=Silver lake blues
TTITLE5=I didn't realize
TTITLE6=Bandy the rodeo clown
TTITLE7=Don't let the deal go down
TTITLE8=I needed you
TTITLE9=Tugboat
TTITLE10=You're making a memory out of me
TTITLE11=End of the line
EXTD=
EXTT0=
EXTT1=
EXTT2=
EXTT3=
EXTT4=
EXTT5=
EXTT6=
EXTT7=
EXTT8=
EXTT9=
EXTT10=
EXTT11=
PLAYORDER=
